<?xml version="1.0"?>
<svg xmlns="http://www.w3.org/2000/svg" xmlns:xlink="http://www.w3.org/1999/xlink" version="1.1" viewBox="0 0 224 224" width="48px" height="48px"><g fill="none" fill-rule="nonzero" stroke="none" stroke-width="1" stroke-linecap="butt" stroke-linejoin="miter" stroke-miterlimit="10" stroke-dasharray="" stroke-dashoffset="0" font-family="none" font-weight="none" font-size="none" text-anchor="none" style="mix-blend-mode: normal"><path d="M0,224v-224h224v224z" fill="none"/><g fill="#ffffff"><path d="M112,18.66667c-51.43603,0 -93.33333,41.89731 -93.33333,93.33333c0,51.43603 41.89731,93.33333 93.33333,93.33333c51.43603,0 93.33333,-41.89731 93.33333,-93.33333c0,-51.43603 -41.89731,-93.33333 -93.33333,-93.33333zM112,37.33333c41.34781,0 74.66667,33.31886 74.66667,74.66667c0,41.34781 -33.31885,74.66667 -74.66667,74.66667c-41.34781,0 -74.66667,-33.31885 -74.66667,-74.66667c0,-41.34781 33.31886,-74.66667 74.66667,-74.66667zM81.26562,68.06771l-13.19792,13.19792l30.73438,30.73438l-30.73438,30.73438l13.19792,13.19791l30.73438,-30.73438l30.73438,30.73438l13.19791,-13.19791l-30.73438,-30.73438l30.73438,-30.73438l-13.19791,-13.19792l-30.73438,30.73438z"/></g></g></svg>
