<?xml version="1.0" encoding="utf-8"?>
<!-- Generator: Adobe Illustrator 18.1.1, SVG Export Plug-In . SVG Version: 6.00 Build 0)  -->
<svg version="1.1" id="Layer_1" xmlns="http://www.w3.org/2000/svg" xmlns:xlink="http://www.w3.org/1999/xlink" x="0px" y="0px"
	 viewBox="0 0 541.4 60" enable-background="new 0 0 541.4 60" xml:space="preserve">
<g>
	<polygon fill="#EC1C24" points="43.9,7.4 39.4,11.9 34.9,7.4 30.5,11.9 26,7.4 26,14.2 43.9,14.2 	"/>
	<polygon fill="#1E1E1E" points="11.2,17.5 11.2,26 29.5,26 29.5,51.4 40.5,51.4 40.5,26 58.7,26 58.7,17.5 	"/>
	<path fill="#1E1E1E" d="M107.6,51.4H95.9L92,44.6H70.8l-3.8,6.8H55.3l19-33.9h14.2L107.6,51.4z M87.3,36.1l-5.9-10.4l-5.8,10.4
		H87.3z"/>
	<path fill="#1E1E1E" d="M154.6,19.1c1.8,1.1,3.2,2.5,4.3,4.3c1,1.8,1.5,3.8,1.5,6c0,2.2-0.5,4.1-1.5,6s-2.5,3.2-4.3,4.3
		c-1.8,1.1-3.8,1.6-6.1,1.6H124v10.2h-11V17.5h35.6C150.8,17.5,152.8,18,154.6,19.1z M148.5,31.8c0.6-0.6,0.9-1.4,0.9-2.4
		c0-1-0.3-1.8-0.9-2.4S147,26,145.8,26H124v6.8h21.8C147,32.8,147.9,32.4,148.5,31.8z"/>
	<path fill="#1E1E1E" d="M210.6,51.4h-11.8l-3.8-6.8h-21.2l-3.8,6.8h-11.8l19-33.9h14.2L210.6,51.4z M190.2,36.1l-5.9-10.4
		l-5.8,10.4H190.2z"/>
	<path fill="#1E1E1E" d="M262.4,17.5v33.9h-11V38.7h-24.5v12.7h-11V17.5h11v12.7h24.5V17.5H262.4z"/>
	<path fill="#1E1E1E" d="M317.1,17.5V26h-18.2v25.4h-11V26h-18.3v-8.5H317.1z"/>
	<path fill="#1E1E1E" d="M369.4,34.8c0,5.2-1.8,9.5-5.3,12.7c-3.5,3.2-9.4,4.9-17.6,4.9c-8.1,0-14-1.6-17.5-4.9
		c-3.5-3.2-5.3-7.5-5.3-12.7V17.5h11v17c0,2.8,1,5,2.9,6.8c1.9,1.7,4.9,2.6,8.9,2.6c4.1,0,7.1-0.9,9-2.6c1.9-1.7,2.9-4,2.9-6.8v-17
		h10.9L369.4,34.8z"/>
	<path fill="#1E1E1E" d="M431.6,17.5v33.9h-11V33l-9.7,18.5H398l-9.7-18.5v18.5h-11V17.5h14.4l12.7,24.2l12.7-24.2H431.6z"/>
	<path fill="#1E1E1E" d="M489.2,51.4h-11.8l-3.8-6.8h-21.2l-3.8,6.8h-11.8l19-33.9h14.2L489.2,51.4z M468.9,36.1L463,25.8l-5.8,10.4
		H468.9z"/>
	<path fill="#1E1E1E" d="M533.3,17.5V26h-18.2v25.4h-11V26h-18.3v-8.5H533.3z"/>
</g>
</svg>
