<?xml version="1.0" encoding="utf-8"?>
<!-- Generator: Adobe Illustrator 18.1.1, SVG Export Plug-In . SVG Version: 6.00 Build 0)  -->
<svg version="1.1" id="Layer_1" xmlns="http://www.w3.org/2000/svg" xmlns:xlink="http://www.w3.org/1999/xlink" x="0px" y="0px"
	 viewBox="0 0 522.1 56.6" enable-background="new 0 0 522.1 56.6" xml:space="preserve">
<g>
	<polygon fill="#EC1C24" points="32.7,4 28.2,8.5 23.7,4 19.3,8.5 14.8,4 14.8,10.7 32.7,10.7 	"/>
	<polygon fill="#1E1E1E" points="0,14.1 0,22.5 18.3,22.5 18.3,48 29.3,48 29.3,22.5 47.5,22.5 47.5,14.1 	"/>
	<path fill="#1E1E1E" d="M96.4,48H84.7l-3.8-6.8H59.6L55.9,48H44.1l19-33.9h14.2L96.4,48z M76.1,32.7l-5.9-10.4l-5.8,10.4H76.1z"/>
	<path fill="#1E1E1E" d="M143.4,15.7c1.8,1.1,3.2,2.5,4.3,4.3c1,1.8,1.5,3.8,1.5,6c0,2.2-0.5,4.1-1.5,6s-2.5,3.2-4.3,4.3
		c-1.8,1.1-3.8,1.6-6.1,1.6h-24.6V48h-11V14.1h35.6C139.6,14.1,141.6,14.6,143.4,15.7z M137.3,28.4c0.6-0.6,0.9-1.4,0.9-2.4
		c0-1-0.3-1.8-0.9-2.4s-1.5-0.9-2.7-0.9h-21.8v6.8h21.8C135.8,29.3,136.7,29,137.3,28.4z"/>
	<path fill="#1E1E1E" d="M199.4,48h-11.8l-3.8-6.8h-21.2l-3.8,6.8H147l19-33.9h14.2L199.4,48z M179,32.7l-5.9-10.4l-5.8,10.4H179z"
		/>
	<path fill="#1E1E1E" d="M251.2,14.1V48h-11V35.3h-24.5V48h-11V14.1h11v12.7h24.5V14.1H251.2z"/>
	<path fill="#1E1E1E" d="M305.9,14.1v8.5h-18.2V48h-11V22.5h-18.3v-8.5H305.9z"/>
	<path fill="#1E1E1E" d="M358.2,31.4c0,5.2-1.8,9.5-5.3,12.7c-3.5,3.2-9.4,4.9-17.6,4.9c-8.1,0-14-1.6-17.5-4.9
		c-3.5-3.2-5.3-7.5-5.3-12.7V14.1h11v17c0,2.8,1,5,2.9,6.8s4.9,2.6,8.9,2.6c4.1,0,7.1-0.9,9-2.6c1.9-1.7,2.9-4,2.9-6.8v-17h10.9
		L358.2,31.4z"/>
	<path fill="#1E1E1E" d="M420.4,14.1V48h-11V29.5L399.7,48h-12.8l-9.7-18.5V48h-11V14.1h14.4l12.7,24.2L406,14.1H420.4z"/>
	<path fill="#1E1E1E" d="M478,48h-11.8l-3.8-6.8h-21.2l-3.8,6.8h-11.8l19-33.9H459L478,48z M457.7,32.7l-5.9-10.4L446,32.7H457.7z"
		/>
	<path fill="#1E1E1E" d="M522.1,14.1v8.5h-18.2V48h-11V22.5h-18.3v-8.5H522.1z"/>
</g>
</svg>
